<?xml version="1.0" encoding="UTF-8" standalone="no"?>
<!-- Created with Inkscape (http://www.inkscape.org/) -->

<svg
   width="210mm"
   height="297mm"
   viewBox="0 0 210 297"
   version="1.1"
   id="svg1"
   sodipodi:docname="Portada de Youtube.svg"
   inkscape:version="1.4.2 (f4327f4, 2025-05-13)"
   xmlns:inkscape="http://www.inkscape.org/namespaces/inkscape"
   xmlns:sodipodi="http://sodipodi.sourceforge.net/DTD/sodipodi-0.dtd"
   xmlns="http://www.w3.org/2000/svg"
   xmlns:svg="http://www.w3.org/2000/svg">
  <sodipodi:namedview
     id="namedview1"
     pagecolor="#ffffff"
     bordercolor="#000000"
     borderopacity="0.25"
     inkscape:showpageshadow="2"
     inkscape:pageopacity="0.0"
     inkscape:pagecheckerboard="0"
     inkscape:deskcolor="#d1d1d1"
     inkscape:document-units="mm"
     inkscape:zoom="1.77"
     inkscape:cx="427.68362"
     inkscape:cy="452.25989"
     inkscape:window-width="1366"
     inkscape:window-height="705"
     inkscape:window-x="-8"
     inkscape:window-y="-8"
     inkscape:window-maximized="1"
     inkscape:current-layer="layer1" />
  <defs
     id="defs1">
    <inkscape:path-effect
       effect="perspective-envelope"
       up_left_point="261.30354,458.05914"
       up_right_point="292.80856,463.37335"
       down_left_point="261.09949,472.55817"
       down_right_point="293.69276,472.59586"
       id="path-effect5"
       is_visible="true"
       lpeversion="1"
       deform_type="perspective"
       horizontal_mirror="false"
       vertical_mirror="false"
       overflow_perspective="false" />
    <inkscape:path-effect
       effect="perspective-envelope"
       up_left_point="226.26172,462.64648"
       up_right_point="261.05413,458.13929"
       down_left_point="226.26172,472.53125"
       down_right_point="261.14437,473.02077"
       id="path-effect2"
       is_visible="true"
       lpeversion="1"
       deform_type="perspective"
       horizontal_mirror="false"
       vertical_mirror="false"
       overflow_perspective="false" />
    <inkscape:path-effect
       effect="perspective-envelope"
       up_left_point="226.26172,462.6458"
       up_right_point="295.12109,462.6458"
       down_left_point="226.26172,472.53057"
       down_right_point="295.12109,472.53057"
       id="path-effect4"
       is_visible="true"
       lpeversion="1"
       deform_type="perspective"
       horizontal_mirror="false"
       vertical_mirror="false"
       overflow_perspective="false" />
    <inkscape:path-effect
       effect="slice"
       start_point="260.6914,472.53057"
       end_point="260.6914,462.6458"
       center_point="260.6914,467.58819"
       id="path-effect1"
       is_visible="true"
       lpeversion="1.2"
       lpesatellites="#path1"
       allow_transforms="true" />
    <inkscape:path-effect
       effect="slice"
       start_point="260.69141,462.70338"
       end_point="260.69141,472.53057"
       center_point="260.69141,467.61698"
       id="path-effect16"
       is_visible="true"
       lpeversion="1.2"
       lpesatellites="#path16"
       allow_transforms="true" />
    <inkscape:path-effect
       effect="slice"
       start_point="260.69141,462.70338"
       end_point="260.69141,472.53057"
       center_point="260.69141,467.61698"
       id="path-effect14"
       is_visible="true"
       lpeversion="1.2"
       lpesatellites=""
       allow_transforms="true" />
    <inkscape:perspective
       sodipodi:type="inkscape:persp3d"
       inkscape:vp_x="0 : 148.5 : 1"
       inkscape:vp_y="0 : 1000 : 0"
       inkscape:vp_z="210 : 148.5 : 1"
       inkscape:persp3d-origin="105 : 99 : 1"
       id="perspective3" />
    <inkscape:path-effect
       effect="perspective-envelope"
       up_left_point="226.26172,462.6458"
       up_right_point="295.12109,462.85486"
       down_left_point="226.26172,472.53057"
       down_right_point="295.12109,472.53057"
       id="path-effect3"
       is_visible="true"
       lpeversion="1"
       deform_type="perspective"
       horizontal_mirror="false"
       vertical_mirror="false"
       overflow_perspective="false" />
    <rect
       x="226.19048"
       y="460.31746"
       width="79.365083"
       height="19.047618"
       id="rect2" />
    <rect
       x="325.82082"
       y="511.04773"
       width="71.029579"
       height="50.21212"
       id="rect1" />
    <rect
       x="226.19048"
       y="460.31746"
       width="79.365083"
       height="19.047618"
       id="rect3" />
  </defs>
  <g
     inkscape:label="Capa 1"
     inkscape:groupmode="layer"
     id="layer1">
    <path
       transform="matrix(1.0530542,0,0,2.0088982,-162.33769,-800.36899)"
       id="path14"
       d="m 260.69141,472.02676 c 0.17827,-0.11838 0.31628,-0.28116 0.41406,-0.4877 0.14841,-0.30523 0.22265,-0.77448 0.22265,-1.4082 v -0.86914 c 0,-0.61054 -0.10159,-1.06343 -0.30468,-1.35742 -0.0813,-0.11922 -0.19195,-0.22473 -0.33203,-0.31665 z m 0,-5.07873 c 0.0806,-0.055 0.14638,-0.11452 0.19726,-0.1785 0.17576,-0.2161 0.26367,-0.5997 0.26367,-1.14844 0,-0.81152 -0.12305,-1.39974 -0.36914,-1.76367 -0.0295,-0.0441 -0.0601,-0.0863 -0.0918,-0.12683 z m 1.52148,-3.99491 v 9.38086 h 4.26758 v -1.875 h -1.80469 v -2.0625 l 1.53711,0.002 v -1.78125 l -1.53711,-0.004 v -1.77734 l 1.64258,0.004 v -1.875 z m 4.97461,0.0137 v 9.36718 h 2.45508 v -4.2207 c 0.33795,4.6e-4 0.54534,0.0621 0.62304,0.18164 0.0815,0.11956 0.12305,0.42876 0.12305,0.92969 v 3.10937 h 2.27539 v -2.46484 c 0,-0.75471 -0.0219,-1.21523 -0.0645,-1.38086 -0.0388,-0.16948 -0.13987,-0.35421 -0.30664,-0.55469 -0.16679,-0.2005 -0.49347,-0.36225 -0.97852,-0.48242 0.53549,-0.0492 0.89388,-0.19725 1.07617,-0.44726 0.1823,-0.24998 0.27344,-0.73904 0.27344,-1.4668 0,-0.79707 -0.12883,-1.37756 -0.38867,-1.74024 -0.25601,-0.36656 -0.59061,-0.59574 -1.00195,-0.68554 -0.40756,-0.0898 -1.18982,-0.13567 -2.34766,-0.13867 z m 6.42578,0.0195 v 9.34765 l 2.04492,0.002 v -4.24805 l 1.26953,4.24805 h 2.14063 v -9.33399 l -2.04102,-0.006 v 4.20508 l -1.36914,-4.20898 z m 6.43359,0.0195 v 9.33008 h 4.22071 v -1.86524 h -1.78516 v -2.05078 l 1.51953,0.002 v -1.77343 l -1.51953,-0.002 v -1.76757 l 1.62305,0.004 v -1.86523 z m 4.34766,0.0137 v 1.86524 l 1.4375,0.002 v 7.44922 h 2.42578 v -7.44336 l 1.43946,0.004 v -1.86132 z m 5.44141,0.0156 v 1.86132 l 1.43164,0.004 v 7.43555 h 2.41992 v -7.42969 l 1.43359,0.002 v -1.85742 z m -20.19336,1.54101 c 0.28357,7.1e-4 0.47716,0.0479 0.58203,0.14063 0.1087,0.0928 0.16406,0.28727 0.16406,0.58398 v 0.51367 c 0,0.4123 -0.0573,0.65748 -0.16992,0.73438 -0.10875,0.073 -0.30036,0.10987 -0.57617,0.10937 z"
       style="font-stretch:condensed;font-size:12px;font-family:Impact;-inkscape-font-specification:'Impact, Condensed';white-space:pre;display:none;stroke-width:16.485" />
    <path
       transform="matrix(1.0530542,0,0,2.0088982,-162.33769,-800.36899)"
       id="path16"
       d="m 260.69141,472.02676 c 0.17827,-0.11838 0.31628,-0.28115 0.41406,-0.4877 0.14842,-0.30523 0.22265,-0.77448 0.22265,-1.4082 v -0.86914 c 0,-0.61054 -0.10158,-1.06343 -0.30468,-1.35742 -0.0813,-0.11922 -0.19195,-0.22473 -0.33203,-0.31664 z m 0,-5.07873 c 0.0806,-0.055 0.14638,-0.11452 0.19726,-0.1785 0.17576,-0.2161 0.26367,-0.5997 0.26367,-1.14844 0,-0.81152 -0.12305,-1.39974 -0.36914,-1.76367 -0.0295,-0.0441 -0.0601,-0.0863 -0.0918,-0.12683 z m 1.52148,-3.99491 v 9.38086 h 4.26758 v -1.875 h -1.80469 v -2.0625 l 1.53711,0.002 v -1.78125 l -1.53711,-0.004 v -1.77734 l 1.64258,0.004 v -1.875 z m 4.97461,0.0137 v 9.36718 h 2.45508 v -4.2207 c 0.33796,4.6e-4 0.54534,0.0621 0.62304,0.18164 0.0815,0.11956 0.12305,0.42876 0.12305,0.92969 v 3.10937 h 2.27539 v -2.46484 c 0,-0.75471 -0.0219,-1.21523 -0.0645,-1.38086 -0.0388,-0.16948 -0.13986,-0.35421 -0.30664,-0.55469 -0.16678,-0.2005 -0.49347,-0.36225 -0.97852,-0.48242 0.53548,-0.0492 0.89388,-0.19725 1.07617,-0.44726 0.18232,-0.24998 0.27344,-0.73904 0.27344,-1.4668 0,-0.79707 -0.12883,-1.37757 -0.38867,-1.74024 -0.25602,-0.36657 -0.5906,-0.59574 -1.00195,-0.68554 -0.40756,-0.0898 -1.18982,-0.13567 -2.34766,-0.13867 z m 6.42578,0.0195 v 9.34765 l 2.04492,0.002 v -4.24805 l 1.26953,4.24805 h 2.14063 v -9.33399 l -2.04102,-0.006 v 4.20508 l -1.36914,-4.20898 z m 6.43359,0.0195 v 9.33008 h 4.22071 v -1.86524 h -1.78516 v -2.05078 l 1.51953,0.002 v -1.77343 l -1.51953,-0.002 v -1.76757 l 1.62305,0.004 v -1.86523 z m 4.34766,0.0137 v 1.86524 l 1.4375,0.002 v 7.44922 h 2.42578 v -7.44336 l 1.43946,0.004 v -1.86132 z m 5.44141,0.0156 v 1.86132 l 1.43164,0.004 v 7.43555 h 2.41992 v -7.42969 l 1.43359,0.002 v -1.85742 z m -20.19336,1.54101 c 0.28358,7e-4 0.47717,0.0479 0.58203,0.14063 0.1087,0.0928 0.16406,0.28727 0.16406,0.58398 v 0.51367 c 0,0.4123 -0.0573,0.65748 -0.16992,0.73438 -0.10875,0.073 -0.30036,0.10988 -0.57617,0.10937 z"
       style="font-stretch:condensed;font-size:12px;font-family:Impact;-inkscape-font-specification:'Impact, Condensed';white-space:pre;display:none;stroke-width:16.485" />
    <path
       d="m 261.11552,471.41915 c 0.0256,-0.0465 0.0499,-0.0946 0.0727,-0.14427 0.22955,-0.48559 0.34996,-1.2314 0.36271,-2.23532 l 0.0174,-1.36621 c 0.0114,-0.89539 -0.11217,-1.57863 -0.37117,-2.05492 z m 0.1148,-8.15719 c 0.0959,-0.30801 0.14713,-0.70945 0.15385,-1.20404 0.008,-0.61578 -0.0298,-1.14989 -0.11433,-1.60396 z m 1.70273,-4.92796 -0.11786,14.22615 5.80638,0.007 -0.0312,-2.76044 -2.33643,-0.0841 -0.0102,-3.06028 1.97705,0.14526 -0.0257,-2.53555 -1.96002,-0.20635 -0.009,-2.54243 2.07295,0.28278 -0.0273,-2.57119 z m 6.38713,1.07737 0.18807,13.15652 2.93621,0.003 -0.14174,-5.8571 c 0.38045,0.0299 0.61466,0.12884 0.70533,0.29679 0.0949,0.16806 0.15146,0.59066 0.16986,1.2703 l 0.11614,4.29099 2.4806,0.003 -0.11706,-3.30353 c -0.0353,-0.99625 -0.079,-1.60188 -0.13091,-1.8219 -0.0482,-0.22469 -0.16371,-0.47465 -0.34707,-0.75058 -0.18392,-0.27674 -0.535,-0.51624 -1.05788,-0.71985 0.56912,-0.0139 0.94042,-0.17495 1.11964,-0.48172 0.17788,-0.30449 0.24978,-0.92329 0.21681,-1.85358 -0.0359,-1.01203 -0.19476,-1.76311 -0.47774,-2.26012 -0.28031,-0.50328 -0.63719,-0.84686 -1.07339,-1.0309 -0.43684,-0.18532 -1.28448,-0.38455 -2.57154,-0.60165 z m 6.97584,1.17667 0.46466,11.98824 2.03996,0.002 -0.24719,-5.41585 1.45833,5.41725 1.94735,0.002 -0.62741,-11.14483 -1.80046,-0.3037 0.25233,5.04271 -1.51503,-5.2557 z m 5.86683,0.98961 0.65131,11.00563 3.45195,0.004 -0.1523,-2.15032 -1.40839,-0.0507 -0.15715,-2.37926 1.19615,0.0879 -0.13957,-1.99018 -1.1905,-0.12534 -0.13165,-1.99321 1.26441,0.17249 -0.14322,-2.03432 z m 3.45973,0.58358 0.14426,2.0274 1.07158,0.14619 0.6177,8.25383 1.76015,0.002 -0.64781,-8.01986 0.98168,0.13392 -0.16054,-1.90809 z m 3.85919,0.65096 0.16091,1.90517 0.94298,0.12864 0.67931,7.74705 1.54799,0.002 -0.70057,-7.54057 0.86869,0.11851 -0.17252,-1.79943 z m -17.29363,-0.83288 c 0.31477,0.0444 0.53045,0.13519 0.64878,0.27216 0.12229,0.13731 0.1886,0.39976 0.19912,0.78838 l 0.0183,0.67629 c 0.0147,0.54435 -0.0385,0.86171 -0.15998,0.95072 -0.11784,0.0847 -0.33042,0.11113 -0.63929,0.0788 z"
       id="text2"
       style="font-stretch:condensed;font-size:12px;font-family:Impact;-inkscape-font-specification:'Impact, Condensed';white-space:pre;stroke-width:16.485"
       transform="matrix(1.0896482,0,0,1.9664112,-170.66618,-780.89879)"
       aria-label="TRICKBERNETT"
       inkscape:path-effect="#path-effect1;#path-effect5"
       inkscape:original-d="m 231.65234,462.84502 v 1.89844 h -1.46484 v 7.58789 h -2.4668 v -7.58789 h -1.45898 v -1.89844 z m 0.5625,0 h 1.7461 c 1.16406,0 1.95117,0.0449 2.36133,0.13476 0.41406,0.0899 0.75,0.32032 1.00781,0.69141 0.26172,0.36719 0.39258,0.95508 0.39258,1.76367 0,0.73828 -0.0918,1.23437 -0.27539,1.48828 -0.1836,0.25391 -0.54493,0.40625 -1.08399,0.45703 0.48828,0.1211 0.81641,0.28321 0.98438,0.48633 0.16797,0.20313 0.27148,0.39063 0.31054,0.5625 0.043,0.16797 0.0645,0.63477 0.0645,1.40039 v 2.50196 h -2.29102 V 469.179 c 0,-0.50781 -0.041,-0.82227 -0.12305,-0.94336 -0.0781,-0.12109 -0.2871,-0.18164 -0.62695,-0.18164 v 4.27735 h -2.4668 z m 2.4668,1.62305 v 2.10937 c 0.27735,0 0.47071,-0.0371 0.58008,-0.11133 0.11328,-0.0781 0.16992,-0.32617 0.16992,-0.74414 v -0.52148 c 0,-0.30078 -0.0547,-0.49805 -0.16406,-0.5918 -0.10547,-0.0937 -0.30079,-0.14062 -0.58594,-0.14062 z m 6.46289,-1.62305 v 9.48633 h -2.4668 v -9.48633 z m 6.75,4.13672 h -2.4668 v -1.65235 c 0,-0.48047 -0.0273,-0.77929 -0.082,-0.89648 -0.0508,-0.12109 -0.16603,-0.18164 -0.3457,-0.18164 -0.20313,0 -0.33203,0.0723 -0.38672,0.2168 -0.0547,0.14453 -0.082,0.45703 -0.082,0.9375 v 4.40625 c 0,0.46093 0.0273,0.76171 0.082,0.90234 0.0547,0.14063 0.17771,0.21094 0.36914,0.21094 0.18359,0 0.30273,-0.0703 0.35742,-0.21094 0.0586,-0.14063 0.0879,-0.47071 0.0879,-0.99024 v -1.18945 h 2.4668 v 0.36914 c 0,0.98047 -0.0703,1.67579 -0.21094,2.08594 -0.13671,0.41015 -0.44335,0.76953 -0.91992,1.07812 -0.47265,0.3086 -1.05664,0.4629 -1.75195,0.4629 -0.72266,0 -1.31836,-0.13086 -1.78711,-0.39258 -0.46875,-0.26172 -0.7793,-0.62305 -0.93164,-1.08399 -0.15235,-0.46484 -0.22852,-1.1621 -0.22852,-2.09179 v -2.77149 c 0,-0.68359 0.0234,-1.19531 0.0703,-1.53515 0.0469,-0.34375 0.18554,-0.67383 0.41601,-0.99024 0.23437,-0.31641 0.55664,-0.56445 0.9668,-0.74414 0.41406,-0.18359 0.88867,-0.27539 1.42383,-0.27539 0.72656,0 1.32617,0.14062 1.79882,0.42187 0.47266,0.28125 0.78321,0.63282 0.93164,1.05469 0.14844,0.41797 0.22266,1.07032 0.22266,1.95703 z m 6.76172,-4.13672 -1.41211,4.2832 1.54688,5.20313 h -2.54883 l -0.9961,-4.06641 v 4.06641 h -2.46679 v -9.48633 h 2.46679 v 3.68555 l 1.09571,-3.68555 z m 0.5625,0 h 2.46094 c 0.77734,0 1.36523,0.0606 1.76367,0.18164 0.40234,0.12109 0.72656,0.36719 0.97266,0.73828 0.24609,0.36719 0.36914,0.96094 0.36914,1.78125 0,0.55469 -0.0879,0.94141 -0.26368,1.16016 -0.17187,0.21875 -0.51367,0.38671 -1.02539,0.5039 0.57031,0.12891 0.95703,0.34375 1.16016,0.64453 0.20313,0.29688 0.30469,0.75391 0.30469,1.3711 v 0.8789 c 0,0.64063 -0.0742,1.11524 -0.22266,1.42383 -0.14453,0.30859 -0.37695,0.51953 -0.69726,0.63281 -0.32031,0.11329 -0.97656,0.16993 -1.96875,0.16993 h -2.85352 z m 2.4668,1.62305 v 2.10937 c 0.10547,-0.004 0.1875,-0.006 0.24609,-0.006 0.24219,0 0.39648,-0.0586 0.46289,-0.17578 0.0664,-0.12109 0.0996,-0.46289 0.0996,-1.02539 0,-0.29687 -0.0273,-0.5039 -0.082,-0.62109 -0.0547,-0.1211 -0.12693,-0.19727 -0.2168,-0.22852 -0.0859,-0.0313 -0.25585,-0.0488 -0.50976,-0.0527 z m 0,3.58593 v 2.6543 c 0.34765,-0.0117 0.56836,-0.0664 0.66211,-0.16406 0.0976,-0.0977 0.14648,-0.3379 0.14648,-0.72071 v -0.88476 c 0,-0.40625 -0.043,-0.65235 -0.12891,-0.73828 -0.0859,-0.0859 -0.31249,-0.13477 -0.67968,-0.14649 z m 4.16015,-5.20898 h 4.11328 v 1.89844 h -1.64648 v 1.79882 h 1.54102 v 1.80469 h -1.54102 v 2.08594 h 1.81055 v 1.89844 h -4.27735 z m 4.98633,0 h 1.74609 c 1.16407,0 1.95118,0.0449 2.36133,0.13476 0.41407,0.0899 0.75001,0.32032 1.00782,0.69141 0.26171,0.36719 0.39257,0.95508 0.39257,1.76367 0,0.73828 -0.0918,1.23437 -0.27539,1.48828 -0.18359,0.25391 -0.54492,0.40625 -1.08398,0.45703 0.48828,0.1211 0.8164,0.28321 0.98437,0.48633 0.16797,0.20313 0.27149,0.39063 0.31055,0.5625 0.0429,0.16797 0.0644,0.63477 0.0644,1.40039 v 2.50196 h -2.29101 V 469.179 c 0,-0.50781 -0.041,-0.82227 -0.12305,-0.94336 -0.0781,-0.12109 -0.28711,-0.18164 -0.62695,-0.18164 v 4.27735 h -2.4668 z m 2.4668,1.62305 v 2.10937 c 0.27734,0 0.4707,-0.0371 0.58008,-0.11133 0.11328,-0.0781 0.16992,-0.32617 0.16992,-0.74414 v -0.52148 c 0,-0.30078 -0.0547,-0.49805 -0.16406,-0.5918 -0.10547,-0.0937 -0.30079,-0.14062 -0.58594,-0.14062 z m 9.5039,-1.62305 v 9.48633 h -2.16211 l -1.2832,-4.3125 v 4.3125 h -2.0625 v -9.48633 h 2.0625 l 1.38281,4.27148 v -4.27148 z m 0.99024,0 h 4.11328 v 1.89844 h -1.64648 v 1.79882 h 1.54101 v 1.80469 h -1.54101 v 2.08594 h 1.81054 v 1.89844 h -4.27734 z m 9.79687,0 v 1.89844 H 288.125 v 7.58789 h -2.4668 v -7.58789 h -1.45898 v -1.89844 z m 5.53125,0 v 1.89844 h -1.46484 v 7.58789 h -2.4668 v -7.58789 h -1.45898 v -1.89844 z"
       sodipodi:nodetypes="ccccccccccsccsscscsccsccccccccsscccccccccscsssssscsccsccsscsscccsscsccccccccccccccsccscccsscssccccscscccccccssscccccccccccccccsccsscscsccsccccccccsscccccccccccccccccccccccccccccccccccccccccccc" />
    <path
       transform="matrix(1.0896482,0,0,1.9664116,-170.66618,-780.89897)"
       id="path1"
       d="m 241.59369,460.6603 c -0.53366,0.0691 -1.00104,0.2404 -1.40426,0.51246 -0.39562,0.26434 -0.70354,0.59744 -0.92568,0.99959 -0.21729,0.39961 -0.34709,0.80419 -0.39031,1.21502 -0.0432,0.40583 -0.0638,1.01231 -0.0621,1.81986 l 0.007,3.2764 c 0.002,1.0999 0.0759,1.92409 0.22078,2.47376 0.14545,0.54709 0.44203,0.97818 0.89307,1.29439 0.45606,0.31974 1.04239,0.48594 1.76442,0.49608 0.70658,0.01 1.3087,-0.17378 1.80159,-0.55445 0.50272,-0.38502 0.82863,-0.83843 0.97371,-1.35807 0.14978,-0.52137 0.22284,-1.4047 0.21885,-2.64832 l -0.002,-0.46807 -2.58488,0.11392 0.004,1.46384 c 0.002,0.63961 -0.0269,1.04648 -0.086,1.22034 -0.055,0.1736 -0.17541,0.26116 -0.36062,0.26288 -0.19227,0.002 -0.31558,-0.0829 -0.37064,-0.25382 -0.055,-0.17072 -0.0831,-0.53676 -0.0846,-1.0982 l -0.0139,-5.36154 c -0.002,-0.58404 0.0246,-0.96657 0.0786,-1.14788 0.0541,-0.1815 0.1826,-0.28318 0.38633,-0.30482 0.18103,-0.0192 0.29774,0.0426 0.34961,0.18578 0.0559,0.13814 0.0846,0.50238 0.0863,1.09267 l 0.006,2.03093 2.58383,-0.17215 -0.004,-1.14307 c -0.004,-1.12282 -0.0862,-1.94044 -0.24744,-2.45167 -0.16058,-0.51419 -0.49255,-0.91748 -0.99193,-1.20877 -0.49358,-0.28792 -1.11085,-0.38237 -1.84638,-0.28709 z m -15.33197,2.18506 0,1.89594 0.9939,-0.0985 0.001,7.69999 1.74979,0.0195 -0.004,-7.89267 1.07962,-0.10701 -0.001,-2.00099 z m 4.24267,-0.53736 0.007,10.07102 1.91894,0.0214 -0.005,-4.66458 c 0.27206,-0.0139 0.44042,0.0438 0.50366,0.17356 0.0665,0.12974 0.10017,0.47366 0.10083,1.03162 l 0.004,3.46613 1.90536,0.0212 -0.004,-2.82064 c -0.001,-0.86258 -0.0204,-1.38759 -0.0573,-1.57505 -0.0335,-0.19182 -0.12169,-0.39826 -0.26419,-0.61882 -0.14197,-0.21972 -0.41741,-0.38489 -0.82346,-0.49523 0.44824,-0.084 0.75146,-0.27325 0.90615,-0.56808 0.15529,-0.29599 0.23254,-0.85981 0.23129,-1.69041 -0.001,-0.90942 -0.11358,-1.5583 -0.33565,-1.9451 -0.21749,-0.38929 -0.49864,-0.61176 -0.84204,-0.66891 -0.33714,-0.057 -0.97566,-0.0256 -1.90046,0.0915 z m 5.24042,-0.66373 0.0178,10.79321 2.20869,0.0246 -0.0226,-11.09695 z m 9.88602,-1.25213 0.041,12.15568 2.81275,0.0313 -0.0208,-5.38309 1.20807,5.39631 3.18384,0.0355 -1.98821,-7.09014 1.75411,-6.03095 -2.88135,0.36494 -1.28532,5.0315 -0.0188,-4.86633 z m 15.43992,0.50061 c -0.0962,-0.43127 -0.23766,-0.77302 -0.42389,-1.02516 -0.37346,-0.51131 -0.85918,-0.81907 -1.45398,-0.92508 -0.58224,-0.10541 -1.42828,-0.0872 -2.52483,0.0517 l -3.31879,0.42034 0.0624,13.21945 3.88136,0.0432 c 1.42417,0.0159 2.38818,-0.0576 2.86463,-0.22209 0.43172,-0.14899 0.75851,-0.41846 0.97831,-0.80869 z m 0.0313,5.16132 c -0.0175,-0.0274 -0.0355,-0.0538 -0.054,-0.0793 -0.31104,-0.43464 -0.89483,-0.72118 -1.74215,-0.85989 0.75758,-0.22266 1.26908,-0.50755 1.52699,-0.85345 0.10694,-0.14029 0.19193,-0.32044 0.25505,-0.54043 z m -28.68048,-2.22304 c 0.22797,-0.0235 0.38498,0.0116 0.47012,0.10552 0.0885,0.0938 0.13302,0.30585 0.13341,0.63585 l 6.8e-4,0.57224 c 5.4e-4,0.45873 -0.045,0.73447 -0.13647,0.82694 -0.0881,0.0877 -0.24346,0.13964 -0.46527,0.15572 z m 24.26703,-2.50226 c 0.35582,-0.0309 0.59552,-0.0304 0.71729,0.002 0.12775,0.0322 0.23099,0.13257 0.30986,0.30087 0.079,0.16288 0.11961,0.46063 0.12199,0.89307 0.005,0.81957 -0.0402,1.32134 -0.13396,1.50486 -0.0936,0.17751 -0.31222,0.27864 -0.65412,0.30346 -0.0824,0.006 -0.19743,0.0172 -0.34498,0.0337 z m 0.0274,5.16699 c 0.51603,-0.009 0.83749,0.0454 0.96044,0.16433 0.12324,0.11925 0.1867,0.47543 0.18996,1.06827 l 0.007,1.29156 c 0.003,0.559 -0.0649,0.91093 -0.20345,1.0556 -0.13261,0.1442 -0.44506,0.22773 -0.93375,0.2508 z"
       style="font-stretch:condensed;font-size:12px;font-family:Impact;-inkscape-font-specification:'Impact, Condensed';white-space:pre;display:inline;stroke-width:16.485"
       sodipodi:nodetypes="scccsscssccsccscscsscscsccscsssccccccccccccccsccscscssccscccccccccccccccccccccsccscccccccccccssccccccscsccccssccc"
       inkscape:path-effect="#path-effect2"
       inkscape:original-d="m 244.94141,462.64648 c -0.53516,0 -1.00977,0.0918 -1.42383,0.27539 -0.41016,0.17969 -0.73243,0.42774 -0.9668,0.74415 -0.23047,0.31641 -0.36911,0.64648 -0.41601,0.99023 -0.0469,0.33984 -0.0703,0.85157 -0.0703,1.53516 v 2.77148 c 0,0.92969 0.0762,1.62696 0.22852,2.0918 0.15234,0.46094 0.46289,0.82226 0.93164,1.08398 0.46875,0.26172 1.06445,0.39258 1.78711,0.39258 0.69531,0 1.2793,-0.15429 1.75195,-0.46289 0.47657,-0.30859 0.78321,-0.66798 0.91992,-1.07813 0.14064,-0.41015 0.21094,-1.10546 0.21094,-2.08593 v -0.36914 h -2.4668 v 1.18945 c 0,0.51953 -0.0293,0.8496 -0.0879,0.99023 -0.0547,0.14064 -0.17383,0.21094 -0.35742,0.21094 -0.19143,0 -0.31444,-0.0703 -0.36914,-0.21094 -0.0547,-0.14063 -0.082,-0.44141 -0.082,-0.90234 v -4.40625 c 0,-0.48047 0.0273,-0.79297 0.082,-0.9375 0.0547,-0.1445 0.18359,-0.2168 0.38672,-0.2168 0.17967,0 0.2949,0.0605 0.3457,0.18164 0.0547,0.11719 0.082,0.41602 0.082,0.89649 v 1.65234 h 2.4668 v -0.90234 c 0,-0.88671 -0.0742,-1.53906 -0.22266,-1.95703 -0.14842,-0.42187 -0.45898,-0.77344 -0.93164,-1.05469 -0.47265,-0.28125 -1.07226,-0.42188 -1.79882,-0.42188 z m -18.67969,0.19922 v 1.89844 h 1.45898 v 7.58789 h 2.4668 v -7.58789 h 1.46484 v -1.89844 z m 5.95312,0 v 9.48633 h 2.4668 v -4.27734 c 0.33985,0 0.54885,0.0605 0.62695,0.18164 0.082,0.12109 0.12305,0.43555 0.12305,0.94336 v 3.15234 h 2.29102 v -2.50195 c 0,-0.76562 -0.0215,-1.23242 -0.0645,-1.40039 -0.0391,-0.17187 -0.14257,-0.35937 -0.31054,-0.5625 -0.16797,-0.20312 -0.4961,-0.36523 -0.98438,-0.48633 0.53906,-0.0508 0.90039,-0.20312 1.08399,-0.45703 0.18359,-0.25391 0.27539,-0.75 0.27539,-1.48828 0,-0.80859 -0.13086,-1.39649 -0.39258,-1.76368 -0.25781,-0.37109 -0.59375,-0.6015 -1.00781,-0.6914 -0.41016,-0.0899 -1.19727,-0.13477 -2.36133,-0.13477 z m 6.46289,0 v 9.48633 h 2.4668 v -9.48633 z m 10.10157,0 v 9.48633 h 2.46679 v -4.06641 l 0.9961,4.06641 h 2.54883 l -1.54688,-5.20312 1.41211,-4.28321 h -2.31445 l -1.09571,3.68555 v -3.68555 z m 11.9121,1.63358 c -0.0615,-0.29363 -0.15332,-0.53152 -0.27538,-0.71366 -0.2461,-0.37108 -0.57032,-0.61719 -0.97266,-0.73828 -0.39844,-0.12104 -0.98633,-0.18164 -1.76367,-0.18164 h -2.46094 v 9.48633 h 2.85352 c 0.99219,0 1.64844,-0.0566 1.96875,-0.16992 0.28769,-0.10175 0.50449,-0.28228 0.65038,-0.54159 z m 0,3.43083 c -0.0114,-0.0188 -0.0231,-0.037 -0.0351,-0.0546 -0.20313,-0.30078 -0.58985,-0.51562 -1.16016,-0.64453 0.51172,-0.11719 0.85352,-0.28516 1.02539,-0.50391 0.071,-0.0883 0.1276,-0.20399 0.16992,-0.34705 z m -26.00976,-3.44136 c 0.28515,0 0.48047,0.0469 0.58594,0.14062 0.10936,0.0937 0.16406,0.29102 0.16406,0.5918 v 0.52149 c 0,0.41797 -0.0566,0.66604 -0.16992,0.74414 -0.10937,0.0742 -0.30273,0.11132 -0.58008,0.11132 z m 23.00391,0 c 0.25391,0.004 0.42386,0.0214 0.50976,0.0527 0.0899,0.0312 0.1621,0.10742 0.2168,0.22852 0.0547,0.11719 0.082,0.32422 0.082,0.62109 0,0.5625 -0.0332,0.9043 -0.0996,1.02539 -0.0664,0.11718 -0.2207,0.17579 -0.46289,0.17579 -0.0586,0 -0.14062,0.002 -0.24609,0.006 z m 0,3.58594 c 0.36719,0.0117 0.59378,0.0606 0.67968,0.14648 0.0859,0.0859 0.12891,0.33203 0.12891,0.73828 v 0.88477 c 0,0.38281 -0.0489,0.623 -0.14648,0.7207 -0.0937,0.0977 -0.31446,0.15236 -0.66211,0.16406 z" />
  </g>
</svg>
